<?xml version="1.0" encoding="utf-8"?>
<!-- Generator: Adobe Illustrator 22.0.2, SVG Export Plug-In . SVG Version: 6.00 Build 0)  -->
<svg version="1.1" id="图层_1" xmlns="http://www.w3.org/2000/svg" xmlns:xlink="http://www.w3.org/1999/xlink" x="0px" y="0px"
	 viewBox="0 0 48 48" style="enable-background:new 0 0 48 48;" xml:space="preserve">
<style type="text/css">
	.st0{fill:#CCCCCC;}
	.st1{fill:#FFFFFF;}
	.st2{fill:#333333;}
	.st3{fill:#999999;}
</style>
<path class="st0" d="M12,38.7c1.7,1.9,4.2,3,6.8,3h21.3c4.3,0,7.9-3.5,7.9-7.9V14.1c0-4.3-3.5-7.9-7.9-7.9H18.9
	c-2.6,0-5.1,1.1-6.8,3l-11,12c-1.4,1.6-1.4,4,0,5.5L12,38.7z"/>
<path class="st1" d="M2.9,22.9l11-12c1.3-1.4,3.1-2.2,5.1-2.2h21.3c3,0,5.5,2.5,5.5,5.5v19.7c0,3-2.5,5.5-5.5,5.5H18.9
	c-1.9,0-3.8-0.8-5.1-2.2l-11-12C2.3,24.5,2.3,23.5,2.9,22.9L2.9,22.9z"/>
<path class="st2" d="M22.1,30.4c0.2,0.2,0.5,0.4,0.9,0.4c0.3,0,0.6-0.1,0.9-0.4l4.7-4.7l4.7,4.7c0.2,0.2,0.5,0.4,0.9,0.4
	c0.3,0,0.6-0.1,0.9-0.4c0.2-0.2,0.4-0.5,0.4-0.8c0-0.3-0.1-0.6-0.4-0.8L30.2,24l4.7-4.7c0.2-0.2,0.4-0.5,0.4-0.8
	c0-0.3-0.1-0.6-0.4-0.8c-0.2-0.2-0.5-0.4-0.8-0.4c-0.3,0-0.6,0.1-0.8,0.4l-4.7,4.7l-4.7-4.7c-0.2-0.2-0.5-0.4-0.8-0.4
	c-0.3,0-0.6,0.1-0.8,0.4c-0.2,0.2-0.4,0.5-0.4,0.8c0,0.3,0.1,0.6,0.4,0.8l4.7,4.7l-4.7,4.7C21.6,29.2,21.6,29.9,22.1,30.4L22.1,30.4
	z"/>
<path class="st3" d="M22.1,30.4"/>
</svg>
